<svg xmlns="http://www.w3.org/2000/svg" xmlns:xlink="http://www.w3.org/1999/xlink" width="100" height="100" viewBox="0 0 100 100"><g><g transform="translate(50 50) scale(0.69 0.69) rotate(0) translate(-50 -50)" style="fill:#777777"><svg fill="#777777" xmlns:x="http://ns.adobe.com/Extensibility/1.0/" xmlns:i="http://ns.adobe.com/AdobeIllustrator/10.0/" xmlns:graph="http://ns.adobe.com/Graphs/1.0/" xmlns="http://www.w3.org/2000/svg" xmlns:xlink="http://www.w3.org/1999/xlink" version="1.1" x="0px" y="0px" viewBox="0 0 100 100" enable-background="new 0 0 100 100" xml:space="preserve"><g><g i:extraneous="self"><g><g><path d="M51.4,36.3c-10.5-0.8-19.3,7.9-18.4,18.4c0.7,8.3,7.4,15,15.7,15.7c10.5,0.8,19.3-7.9,18.4-18.4      C66.4,43.6,59.7,36.9,51.4,36.3z"></path></g><g><path d="M72.5,17h-8.3c-0.8,0-1.6-0.5-2-1.2c0,0-0.1-0.1-0.1-0.1l-2.3-3.6c-0.7-1.1-1.8-1.7-3.1-1.7H43.4      c-1.3,0-2.4,0.6-3.1,1.7L38,15.7c0,0-0.1,0.1-0.1,0.1c-0.4,0.7-1.2,1.2-2,1.2h-8.3c-7.6,0-13.8,6.2-13.8,13.8v44.9      c0,7.6,6.2,13.8,13.8,13.8h44.9c7.6,0,13.8-6.2,13.8-13.8V30.9C86.3,23.2,80.1,17,72.5,17z M51.7,73.8      c-12.7,1-23.2-9.5-22.2-22.2c0.8-10,8.9-18.1,18.9-18.9c12.7-1,23.2,9.5,22.2,22.2C69.7,65,61.7,73.1,51.7,73.8z"></path></g></g></g></g></svg></g></g></svg>